<svg xmlns="http://www.w3.org/2000/svg" data-name="Layer 1" viewBox="0 0 512 512"><path fill="#f2f2f2" d="M336.5,414.5h-236V97.5L322.93675,12.67242A10,10,0,0,1,336.5,22.01605Z"/><path fill="#dedede" d="M322.93677,12.67236,291.5,24.661V414.5h45V22.01611A10,10,0,0,0,322.93677,12.67236Z"/><path fill="#63ea86" d="M100.5,97.5h301a10,10,0,0,1,10,10v387a10,10,0,0,1-10,10h-301a0,0,0,0,1,0,0V97.5A0,0,0,0,1,100.5,97.5Z"/><path fill="#3ce568" d="M401.5,97.5h-45a9.99987,9.99987,0,0,1,10,10v387a9.99987,9.99987,0,0,1-10,10h45a9.99987,9.99987,0,0,0,10-10v-387A9.99987,9.99987,0,0,0,401.5,97.5Z"/><path fill="#f66" d="M246.00371,175.53539h19.99258a60,60,0,0,1,60,60v16.99592a0,0,0,0,1,0,0H186.00371a0,0,0,0,1,0,0V235.53539A60,60,0,0,1,246.00371,175.53539Z"/><path fill="#ff4e4e" d="M265.99634,175.5354H246.00366c-1.68677,0-3.35229.08728-5.00366.22376a59.99316,59.99316,0,0,1,54.99634,59.77624v16.99585h30V235.5354A60.00008,60.00008,0,0,0,265.99634,175.5354Z"/><rect width="171.991" height="29.998" x="170.005" y="252.531" fill="#ff7070" rx="14.999"/><path fill="#f66" d="M326.99634,252.53125h-30a14.99912,14.99912,0,0,1,14.999,14.99927h0a14.99913,14.99913,0,0,1-14.999,14.99927h30a14.99913,14.99913,0,0,0,14.999-14.99927h0A14.99912,14.99912,0,0,0,326.99634,252.53125Z"/><circle cx="256" cy="158.036" r="17.499" fill="#f66"/><path fill="#ff4e4e" d="M256,140.53723a17.397,17.397,0,0,0-7.5,1.70691,17.47047,17.47047,0,0,1,0,31.58447,17.49207,17.49207,0,1,0,7.5-33.29138Z"/><path fill="#a6f3ba" d="M366.5 335.92676h-134a7.5 7.5 0 0 1 0-15h134a7.5 7.5 0 0 1 0 15zM366.5 377.92676h-134a7.5 7.5 0 0 1 0-15h134a7.5 7.5 0 0 1 0 15z"/><rect width="42" height="42" x="145.5" y="328.427" fill="#a6f3ba" rx="4"/><path fill="#a6f3ba" d="M366.5 425h-134a7.5 7.5 0 0 1 0-15h134a7.5 7.5 0 0 1 0 15zM366.5 467h-134a7.5 7.5 0 0 1 0-15h134a7.5 7.5 0 0 1 0 15z"/><rect width="42" height="42" x="145.5" y="417.5" fill="#a6f3ba" rx="4"/></svg>