<svg xmlns="http://www.w3.org/2000/svg" enable-background="new 0 0 66 66" viewBox="0 0 66 66"><polygon fill="#FAD22C" points="32.9 8.7 43.8 16.3 43.8 1"/><polygon fill="#FAD22C" points="33.1 8.7 22.2 16.3 22.2 1"/><polygon fill="#EEC71F" points="22.2 16.3 32.9 7.3 43.8 16.3"/><path fill="#E0B624" d="M22.2,1l10.1,9.5c0.4,0.3,0.9,0.3,1.3,0L43.8,1H22.2z"/><polygon fill="#C6A28A" points="52.5 42.5 49.9 44.2 47.4 42.5 47.4 38.5 52.5 38.5"/><rect width="2.6" height="5.7" x="47.4" y="38.5" fill="#D5B79F"/><ellipse cx="49.9" cy="32" fill="#D5B79F" rx="6.9" ry="8.3"/><path fill="#C6A28A" d="M50,23.6C50,23.6,50,23.6,50,23.6c-3.9,0-7,3.7-7,8.3s3.1,8.3,6.9,8.3c0,0,0,0,0.1,0V23.6z"/><ellipse cx="57.1" cy="32.5" fill="#D5B79F" rx="1.7" ry=".9" transform="rotate(-83.8 57.067 32.452)"/><ellipse cx="42.9" cy="32.5" fill="#D5B79F" rx="1.7" ry=".9" transform="rotate(-96.2 42.939 32.452)"/><path fill="#15A9CB" d="M36.4,60.2h4.8l0.2-5.6l0.3,5.6H58l0.3-5.6l0.1,5.6h5.1c0-1.6,0-9.8,0-11.3c0-0.4-0.2-0.9-0.4-1.3
					c-1.6-2.8-7.1-4.1-10.8-5.3l-2.4,1.4l-2.3-1.4c0,0-4.8,1.5-6.7,2.3c-1.9,0.8-4.4,2.3-4.5,4.3C36.4,49.9,36.4,59.5,36.4,60.2z"/><polygon fill="#FFF" points="50.7 43.8 49.2 43.8 48.5 45 49.2 46.3 50.7 46.3 51.4 45"/><polygon fill="#E6E6E8" points="51.4 45 50.7 43.8 49.9 43.8 49.9 46.3 50.7 46.3"/><polygon fill="#45BBDD" points="52.5 41.4 49.9 43.8 47.4 41.4 46.2 42.8 48.4 45.8 49.9 43.8 51.5 45.8 53.7 42.8"/><polygon fill="#E6E6E8" points="49.9 60.2 49.9 46.3 49.2 46.3 48.5 60.2"/><polygon fill="#FFF" points="51.4 60.2 50.7 46.3 49.9 46.3 49.9 60.2"/><path fill="#465C6A" d="M57.2,27.6c-0.3-2.1-1.2-3.7-2.7-4.1c0,0-1-2.2-4-2.3c-3-0.1-6.4,1.4-7.4,3.9c-0.9,2.4-0.5,6.5,0.3,8.5
				c0,0.1,0.1,0.2,0.3,0.2c0.2,0,0.3-0.2,0.3-0.3c-0.1-0.5-0.3-1.9-0.2-3.3c0.1-1.1,0.6-2.2,1.5-2.9c0.5-0.4,1.2-0.9,2.1-1.3
				c0.3-0.1,0.7-0.2,1.1-0.2c-0.4,1-1.4,1.8-1.4,1.8c1.4-0.1,2.6-1.1,3.2-1.8c0.1,0,0.3,0,0.4,0c-0.4,1.8-1.4,2.6-1.4,2.6
				c3.5-1.1,4.4-2.8,4.4-2.8s2.9,2.8,2.3,8c0,0.2,0.1,0.3,0.3,0.3h0.1c0.1,0,0.2-0.1,0.3-0.2C56.7,32.8,57.4,29.3,57.2,27.6z"/><path fill="#3B4C56" d="M57.2,27.6c-0.3-2.1-1.2-3.7-2.7-4.1c0,0-1-2.2-4-2.3c-0.2,0-0.4,0-0.5,0V26c0.1-0.1,0.2-0.2,0.3-0.3
				c0.1,0,0.3,0,0.4,0c-0.2,0.7-0.4,1.3-0.7,1.7v0.7c2.8-1.1,3.6-2.6,3.6-2.6s2.9,2.8,2.3,8c0,0.2,0.1,0.3,0.3,0.3h0.1
				c0.1,0,0.2-0.1,0.3-0.2C56.7,32.8,57.4,29.3,57.2,27.6z"/><polygon fill="#C6A28A" points="18.5 42.6 15.9 44.4 13.3 42.6 13.3 38.7 18.5 38.7"/><rect width="2.6" height="5.7" x="13.3" y="38.7" fill="#D5B79F"/><ellipse cx="15.9" cy="32.1" fill="#D5B79F" rx="6.9" ry="8.3"/><path fill="#C6A28A" d="M16,23.8C16,23.8,16,23.8,16,23.8c-3.9,0-7,3.7-7,8.3s3.1,8.3,6.9,8.3c0,0,0,0,0.1,0V23.8z"/><ellipse cx="23.1" cy="32.6" fill="#D5B79F" rx="1.7" ry=".9" transform="rotate(-83.8 23.059 32.589)"/><ellipse cx="8.9" cy="32.6" fill="#D5B79F" rx="1.7" ry=".9" transform="rotate(-96.2 8.93 32.59)"/><path fill="#639C42" d="M2.4,60.3h4.8l0.2-5.6l0.3,5.6H24l0.3-5.6l0.1,5.6h5.1c0-1.6,0-9.8,0-11.3c0-0.4-0.2-0.9-0.4-1.3
						c-1.6-2.8-7.2-4.3-10.8-5.3l-2.4,1.4l-2.3-1.4c-2.1,0.9-10.9,2.6-11.2,6.6C2.4,50,2.4,59.7,2.4,60.3z"/><polygon fill="#FFF" points="16.7 43.9 15.2 43.9 14.5 45.2 15.2 46.4 16.7 46.4 17.4 45.2"/><polygon fill="#E6E6E8" points="17.4 45.2 16.7 43.9 15.9 43.9 15.9 46.4 16.7 46.4"/><polygon fill="#6FAC43" points="18.5 41.5 15.9 43.9 13.3 41.5 12.2 43 14.4 45.9 15.9 43.9 17.5 45.9 19.7 43"/><polygon fill="#E6E6E8" points="15.9 60.3 15.9 46.4 15.2 46.4 14.4 60.3"/><polygon fill="#FFF" points="17.4 60.3 16.7 46.4 15.9 46.4 15.9 60.3"/><path fill="#465C6A" d="M23.3,28.2c-0.3-2.1-1.2-3.8-2.7-4.2c0,0-1-2.2-4.1-2.3c-3.1-0.1-6.5,1.4-7.5,4c-0.9,2.5-0.5,6.6,0.3,8.7
				c0,0.1,0.1,0.2,0.3,0.2c0.2,0,0.3-0.2,0.3-0.3c-0.1-0.8-0.3-2.6,0.7-3.6c0,0-0.8-3.2,1.1-3.9c1.8-0.7,6.2,0.2,8-0.5
				c0,0,1.7,1.6,1.4,2.9c-0.3,1.3,1.6,2.6,0.9,5.2c0,0.2,0.1,0.3,0.3,0.3h0.1c0.1,0,0.2-0.1,0.3-0.2C22.8,33.6,23.6,30,23.3,28.2z"/><path fill="#3B4C56" d="M23.3,28.2c-0.3-2.1-1.2-3.8-2.7-4.2c0,0-1-2.2-4.1-2.3c-0.2,0-0.4,0-0.6,0v4.7c1.4,0,2.9,0.1,3.7-0.3
				c0,0,1.7,1.6,1.4,2.9c-0.3,1.3,1.6,2.6,0.9,5.2c0,0.2,0.1,0.3,0.3,0.3h0.1c0.1,0,0.2-0.1,0.3-0.2C22.8,33.6,23.6,30,23.3,28.2z"/><g><polygon fill="#C6A28A" points="35.5 47.3 32.9 49 30.3 47.3 30.3 43.3 35.5 43.3"/><rect width="2.6" height="5.7" x="30.3" y="43.3" fill="#D5B79F"/><ellipse cx="32.9" cy="36.7" fill="#D5B79F" rx="6.9" ry="8.3"/><path fill="#C6A28A" d="M33,28.4C33,28.4,33,28.4,33,28.4c-3.9,0-7,3.7-7,8.3s3.1,8.3,6.9,8.3c0,0,0,0,0.1,0V28.4z"/><ellipse cx="40.1" cy="37.2" fill="#D5B79F" rx="1.7" ry=".9" transform="rotate(-83.8 40.063 37.243)"/><ellipse cx="25.9" cy="37.2" fill="#D5B79F" rx="1.7" ry=".9" transform="rotate(-96.2 25.934 37.243)"/><path fill="#D95239" d="M19.4,65h4.8l0.2-5.6l0.3,5.6H41l0.3-5.6l0.1,5.6h5.1c0-3.2,0-6.8,0-8.4c0-1.4,0-2.5,0-2.9
				c-0.2-3.5-6.9-5.2-10.2-6.3c-0.6-0.2-1-0.3-1-0.3l-2.4,1.4l-2.3-1.4c0,0-4.8,1.5-6.7,2.3c-1.9,0.8-4.4,2.3-4.5,4.3
				c0,0.5,0,1.6-0.1,2.9h0C19.4,58.9,19.4,62.1,19.4,65z"/><path fill="#465C6A" d="M40.2,32.3c-0.3-2.1-1.2-3.7-2.7-4.1c0,0-1-2.2-4-2.3c-3-0.1-6.4,1.4-7.4,3.9c-0.9,2.4-0.5,6.5,0.3,8.5
				c0,0.1,0.1,0.2,0.3,0.2c0.2,0,0.3-0.2,0.3-0.3c-0.1-0.7-0.3-2.6,0.7-3.5c0,0,2.6,0,4.4-0.7c1.8-0.7,2.8-3,4.6-3.7
				c0,0,1.7,1.5,1.4,2.9c-0.3,1.3,1.5,2.6,0.9,5.1c0,0.2,0.1,0.3,0.3,0.3h0.1c0.1,0,0.2-0.1,0.3-0.2C39.7,37.6,40.4,34.1,40.2,32.3z
				"/><path fill="#3B4C56" d="M40.2,32.3c-0.3-2.1-1.2-3.7-2.7-4.1c0,0-1-2.2-4-2.3c-0.2,0-0.4,0-0.5,0v7.4c1.2-1,2.1-2.5,3.6-3.1
				c0,0,1.7,1.5,1.4,2.9c-0.3,1.3,1.5,2.6,0.9,5.1c0,0.2,0.1,0.3,0.3,0.3h0.1c0.1,0,0.2-0.1,0.3-0.2C39.7,37.6,40.4,34.1,40.2,32.3z
				"/><polygon fill="#FFF" points="33.7 48.6 32.2 48.6 31.5 49.8 32.2 51.1 33.7 51.1 34.4 49.8"/><polygon fill="#E6E6E8" points="34.4 49.8 33.7 48.6 32.9 48.6 32.9 51.1 33.7 51.1"/><polygon fill="#E8664A" points="35.5 46.2 32.9 48.6 30.3 46.2 29.2 47.6 31.4 50.5 32.9 48.6 34.5 50.5 36.7 47.6"/><polygon fill="#E6E6E8" points="32.9 65 32.9 51.1 32.2 51.1 31.4 65"/><polygon fill="#FFF" points="34.4 65 33.7 51.1 32.9 51.1 32.9 65"/></g><polygon fill="#3C4C56" points="53 15.9 53 6.6 45.9 6.6 45.9 8.6 51 8.6 51 15.9 49.3 15.9 52 19.2 54.6 15.9"/><polygon fill="#3C4C56" points="33.9 21.4 33.9 17.3 31.9 17.3 31.9 21.4 30.3 21.4 32.9 24.8 35.6 21.4"/><polygon fill="#3C4C56" points="20.1 8.6 20.1 6.6 13 6.6 13 15.5 11.3 15.5 14 18.9 16.7 15.5 15 15.5 15 8.6"/></svg>